<svg xmlns="http://www.w3.org/2000/svg" xml:space="preserve" width="800" height="800" style="fill-rule:evenodd;clip-rule:evenodd;stroke-linejoin:round;stroke-miterlimit:2" viewBox="0 0 32 32"><path d="M28.409 8.526a2.27 2.27 0 0 0-.291-1.74C27.794 6.291 27.29 6 26.756 6H9.286l2.571 11h13.262c.773 0 1.451-.604 1.654-1.474z" style="fill:#90e0ef" transform="matrix(1.16667 0 0 1 -5.524 1.155)"/><circle cx="15.5" cy="28.5" r="1.5" style="fill:#90e0ef" transform="translate(-8.357 -9.845)scale(1.33333)"/><circle cx="15.5" cy="28.5" r="1.5" style="fill:#90e0ef" transform="translate(1.643 -9.845)scale(1.33333)"/><circle cx="123" cy="103" r="4" style="fill:#90e0ef" transform="translate(-128.75 -121.75)scale(1.25)"/><path d="M108 121a3.001 3.001 0 0 0 0 6 3.001 3.001 0 0 0 0-6m10 0a3.001 3.001 0 0 0 0 6 3.001 3.001 0 0 0 0-6m-10 2a1 1 0 1 1 0 2 1 1 0 0 1 0-2m10 0a1 1 0 1 1 0 2 1 1 0 0 1 0-2m-2.917-21h-13.362l-.544-1.632A2 2 0 0 0 99.279 99H98a1 1 0 0 0 0 2h1.279l.764 2.29 2.989 10.963.619 2.475a3 3 0 0 0 2.911 2.272H121a1 1 0 0 0 0-2h-14.438c-.459 0-.859-.312-.971-.757l-.31-1.243h14.191a3 3 0 0 0 2.895-2.211l1.116-4.093a1 1 0 0 0 .035-.249A6 6 0 0 0 127 103c0-3.311-2.689-6-6-6a6.005 6.005 0 0 0-5.917 5m0 2h-12.774l2.455 9h14.708a1 1 0 0 0 .965-.737l.893-3.272a6.003 6.003 0 0 1-6.247-4.991M121 99c2.208 0 4 1.792 4 4s-1.792 4-4 4-4-1.792-4-4 1.792-4 4-4m-1 3h-1a1 1 0 0 0 0 2h1v1a1 1 0 0 0 2 0v-1h1a1 1 0 0 0 0-2h-1v-1a1 1 0 0 0-2 0z" style="fill:#1990a7" transform="translate(-96 -96)"/></svg>