<svg xmlns="http://www.w3.org/2000/svg" xml:space="preserve" width="800" height="800" viewBox="0 0 511.998 511.998"><path d="M123.182 272.455a23.27 23.27 0 0 0 25.36 5.046A23.27 23.27 0 0 0 162.909 256v-93.09h325.816c12.853 0 23.273-10.42 23.273-23.273s-10.42-23.273-23.273-23.273H162.91v-93.09a23.273 23.273 0 0 0-39.728-16.457L6.819 123.18c-9.089 9.089-9.089 23.823 0 32.912zM388.818 239.543a23.27 23.27 0 0 0-25.362-5.046 23.275 23.275 0 0 0-14.367 21.501v93.09H23.273C10.42 349.089 0 359.509 0 372.361s10.42 23.273 23.273 23.273h325.816v93.09a23.27 23.27 0 0 0 14.367 21.501 23.255 23.255 0 0 0 25.36-5.046L505.18 388.817c9.089-9.087 9.089-23.822 0-32.912z" style="fill:#5286fa"/></svg>