<svg xmlns="http://www.w3.org/2000/svg" xml:space="preserve" width="800" height="800" viewBox="0 0 511.998 511.998"><path d="M379.569 502.173c-6.999 0-14.042-1.241-20.927-3.69l-94.201-33.498c-.667-.215-3.757-.879-8.441-.879s-7.774.664-8.487.895l-94.153 33.482c-6.886 2.449-13.927 3.69-20.927 3.69-15.348 0-29.566-5.927-40.037-16.69-10.861-11.163-16.591-26.442-16.135-43.018l2.748-99.938c.001-3.789-2.99-12.993-5.248-16.095l-60.934-79.197C.558 231.29-3.127 211.831 2.714 193.848s20.261-31.559 39.56-37.248l95.898-28.27c3.603-1.17 11.432-6.858 13.686-9.966l56.491-82.426c11.374-16.598 28.742-26.115 47.65-26.115s36.277 9.518 47.65 26.115l56.519 82.469c2.227 3.065 10.056 8.754 13.707 9.938l95.848 28.255c19.3 5.689 33.719 19.266 39.56 37.248 5.842 17.983 2.157 37.442-10.112 53.388l-60.964 79.235c-2.228 3.065-5.219 12.267-5.217 16.106l2.747 99.89c.455 16.574-5.274 31.851-16.135 43.016-10.467 10.763-24.685 16.69-40.033 16.69" style="fill:#0055b8"/><path d="M278.348 425.876c-12.292-4.371-32.405-4.371-44.696 0l-94.2 33.496c-12.293 4.372-22.056-2.723-21.697-15.764l2.748-99.938c.358-13.042-5.857-32.171-13.813-42.511l-60.964-79.235c-7.956-10.341-4.226-21.819 8.287-25.507l95.898-28.27c12.514-3.689 28.786-15.512 36.162-26.273l56.519-82.468c7.375-10.763 19.444-10.763 26.819 0l56.519 82.468c7.375 10.761 23.649 22.584 36.162 26.273l95.898 28.27c12.513 3.689 16.243 15.167 8.287 25.507l-60.964 79.235c-7.956 10.341-14.171 29.47-13.813 42.511l2.748 99.938c.358 13.041-9.405 20.136-21.696 15.764z" style="fill:#0071ce"/></svg>