<svg xmlns="http://www.w3.org/2000/svg" width="800" height="800" data-name="Layer 1" viewBox="0 0 64 64"><title/><path d="M38.75 53.57h-13.5a2 2 0 0 1-2-2V37.86a2 2 0 0 1 2-2h13.5a2 2 0 0 1 2 2v13.71a2 2 0 0 1-2 2m-11.5-4h9.5v-9.71h-9.5Z" style="fill:#ffb300"/><path d="M51.07 53.57H12.93a2 2 0 0 1-2-2V22.43A2 2 0 0 1 12 20.66l19.07-10a2 2 0 0 1 1.86 0l19.07 10a2 2 0 0 1 1.07 1.77v15.43a2 2 0 0 1-4 0V23.64L32 14.69l-17.07 9v25.88h34.14v-1.82a2 2 0 0 1 4 0v3.82a2 2 0 0 1-2 2" style="fill:#0074ff"/></svg>